<svg xmlns="http://www.w3.org/2000/svg" viewBox="0 0 1024 1024" width="1024" height="1024">
  <path d="M 482.0,230.0 C 461.0,234.5 416.7,248.2 397.0,255.0 C 377.3,261.8 374.5,265.0 364.0,271.0 C 353.5,277.0 345.7,282.0 334.0,291.0 C 322.3,300.0 304.2,315.3 294.0,325.0 C 283.8,334.7 279.7,340.0 273.0,349.0 C 266.3,358.0 258.0,371.8 254.0,379.0 C 250.0,386.2 250.0,388.0 249.0,392.0 C 248.0,396.0 247.8,400.3 248.0,403.0 C 248.2,405.7 248.0,406.0 250.0,408.0 C 252.0,410.0 253.8,413.0 260.0,415.0 C 266.2,417.0 275.8,419.5 287.0,420.0 C 298.2,420.5 314.0,420.0 327.0,418.0 C 340.0,416.0 357.8,409.5 365.0,408.0 C 372.2,406.5 369.0,406.7 370.0,409.0 C 371.0,411.3 372.0,415.0 371.0,422.0 C 370.0,429.0 365.0,441.2 364.0,451.0 C 363.0,460.8 367.0,468.3 365.0,481.0 C 363.0,493.7 355.8,509.2 352.0,527.0 C 348.2,544.8 346.7,573.7 342.0,588.0 C 337.3,602.3 328.5,603.2 324.0,613.0 C 319.5,622.8 316.3,637.7 315.0,647.0 C 313.7,656.3 315.2,663.0 316.0,669.0 C 316.8,675.0 317.0,677.0 320.0,683.0 C 323.0,689.0 329.0,699.3 334.0,705.0 C 339.0,710.7 347.5,712.0 350.0,717.0 C 352.5,722.0 348.3,730.2 349.0,735.0 C 349.7,739.8 352.2,743.2 354.0,746.0 C 355.8,748.8 356.3,750.0 360.0,752.0 C 363.7,754.0 367.5,757.3 376.0,758.0 C 384.5,758.7 404.0,755.0 411.0,756.0 C 418.0,757.0 414.8,761.5 418.0,764.0 C 421.2,766.5 423.8,768.8 430.0,771.0 C 436.2,773.2 445.5,776.5 455.0,777.0 C 464.5,777.5 477.3,776.8 487.0,774.0 C 496.7,771.2 507.2,761.0 513.0,760.0 C 518.8,759.0 517.5,765.5 522.0,768.0 C 526.5,770.5 534.8,773.5 540.0,775.0 C 545.2,776.5 547.3,776.8 553.0,777.0 C 558.7,777.2 566.2,777.7 574.0,776.0 C 581.8,774.3 594.0,770.2 600.0,767.0 C 606.0,763.8 602.2,758.5 610.0,757.0 C 617.8,755.5 637.8,759.2 647.0,758.0 C 656.2,756.8 660.7,753.5 665.0,750.0 C 669.3,746.5 671.7,742.7 673.0,737.0 C 674.3,731.3 671.3,720.5 673.0,716.0 C 674.7,711.5 679.2,713.3 683.0,710.0 C 686.8,706.7 692.0,703.0 696.0,696.0 C 700.0,689.0 705.0,676.0 707.0,668.0 C 709.0,660.0 708.5,654.8 708.0,648.0 C 707.5,641.2 706.2,634.0 704.0,627.0 C 701.8,620.0 699.0,612.8 695.0,606.0 C 691.0,599.2 683.7,597.5 680.0,586.0 C 676.3,574.5 676.8,554.8 673.0,537.0 C 669.2,519.2 659.3,492.8 657.0,479.0 C 654.7,465.2 659.0,461.0 659.0,454.0 C 659.0,447.0 658.3,442.7 657.0,437.0 C 655.7,431.3 651.8,424.5 651.0,420.0 C 650.2,415.5 650.8,412.0 652.0,410.0 C 653.2,408.0 649.5,406.5 658.0,408.0 C 666.5,409.5 688.3,417.2 703.0,419.0 C 717.7,420.8 734.8,420.3 746.0,419.0 C 757.2,417.7 765.3,413.3 770.0,411.0 C 774.7,408.7 773.3,408.0 774.0,405.0 C 774.7,402.0 776.2,399.7 774.0,393.0 C 771.8,386.3 766.7,374.3 761.0,365.0 C 755.3,355.7 749.7,347.5 740.0,337.0 C 730.3,326.5 716.8,313.2 703.0,302.0 C 689.2,290.8 671.7,278.5 657.0,270.0 C 642.3,261.5 627.0,255.3 615.0,251.0 C 603.0,246.7 595.5,247.2 585.0,244.0 C 574.5,240.8 562.3,234.7 552.0,232.0 C 541.7,229.3 534.7,228.3 523.0,228.0 C 511.3,227.7 503.0,225.5 482.0,230.0 Z M 509.0,500.0 C 510.2,499.8 512.8,499.7 514.0,500.0 C 515.2,500.3 515.3,500.8 516.0,502.0 C 516.7,503.2 517.7,501.7 518.0,507.0 C 518.3,512.3 518.2,529.0 518.0,534.0 C 517.8,539.0 517.5,536.2 517.0,537.0 C 516.5,537.8 516.7,538.7 515.0,539.0 C 513.3,539.3 508.7,539.3 507.0,539.0 C 505.3,538.7 505.3,537.8 505.0,537.0 C 504.7,536.2 505.5,534.3 505.0,534.0 C 504.5,533.7 503.2,534.2 502.0,535.0 C 500.8,535.8 499.0,537.8 498.0,539.0 C 497.0,540.2 496.5,541.0 496.0,542.0 C 495.5,543.0 495.2,544.0 495.0,545.0 C 494.8,546.0 490.8,547.5 495.0,548.0 C 499.2,548.5 515.7,548.2 520.0,548.0 C 524.3,547.8 519.8,547.2 521.0,547.0 C 522.2,546.8 526.0,547.3 527.0,547.0 C 528.0,546.7 527.3,546.2 527.0,545.0 C 526.7,543.8 526.3,541.8 525.0,540.0 C 523.7,538.2 519.8,536.3 519.0,534.0 C 518.2,531.7 519.2,527.3 520.0,526.0 C 520.8,524.7 523.0,525.8 524.0,526.0 C 525.0,526.2 524.5,525.7 526.0,527.0 C 527.5,528.3 531.3,532.0 533.0,534.0 C 534.7,536.0 535.2,537.0 536.0,539.0 C 536.8,541.0 537.7,543.2 538.0,546.0 C 538.3,548.8 538.2,553.7 538.0,556.0 C 537.8,558.3 537.7,558.3 537.0,560.0 C 536.3,561.7 535.7,563.8 534.0,566.0 C 532.3,568.2 529.5,571.2 527.0,573.0 C 524.5,574.8 520.8,576.2 519.0,577.0 C 517.2,577.8 518.0,577.8 516.0,578.0 C 514.0,578.2 509.2,578.2 507.0,578.0 C 504.8,577.8 504.7,577.7 503.0,577.0 C 501.3,576.3 498.8,575.2 497.0,574.0 C 495.2,572.8 493.7,571.8 492.0,570.0 C 490.3,568.2 488.0,564.5 487.0,563.0 C 486.0,561.5 486.5,562.5 486.0,561.0 C 485.5,559.5 484.3,556.0 484.0,554.0 C 483.7,552.0 483.8,550.8 484.0,549.0 C 484.2,547.2 484.2,545.3 485.0,543.0 C 485.8,540.7 487.2,537.5 489.0,535.0 C 490.8,532.5 494.2,529.7 496.0,528.0 C 497.8,526.3 498.7,525.7 500.0,525.0 C 501.3,524.3 503.2,524.5 504.0,524.0 C 504.8,523.5 504.8,525.3 505.0,522.0 C 505.2,518.7 504.8,507.3 505.0,504.0 C 505.2,500.7 505.7,502.5 506.0,502.0 C 506.3,501.5 506.5,501.3 507.0,501.0 C 507.5,500.7 507.8,500.2 509.0,500.0 Z M 375.0,497.0 C 376.7,493.2 375.3,494.3 379.0,497.0 C 382.7,499.7 389.3,507.7 397.0,513.0 C 404.7,518.3 416.8,525.0 425.0,529.0 C 433.2,533.0 438.0,534.5 446.0,537.0 C 454.0,539.5 468.5,540.2 473.0,544.0 C 477.5,547.8 471.8,554.8 473.0,560.0 C 474.2,565.2 477.5,571.2 480.0,575.0 C 482.5,578.8 484.0,580.5 488.0,583.0 C 492.0,585.5 498.3,589.0 504.0,590.0 C 509.7,591.0 516.8,590.2 522.0,589.0 C 527.2,587.8 530.8,586.3 535.0,583.0 C 539.2,579.7 544.3,573.7 547.0,569.0 C 549.7,564.3 550.3,559.3 551.0,555.0 C 551.7,550.7 546.7,546.0 551.0,543.0 C 555.3,540.0 569.2,539.3 577.0,537.0 C 584.8,534.7 589.3,533.3 598.0,529.0 C 606.7,524.7 621.5,516.2 629.0,511.0 C 636.5,505.8 639.7,500.0 643.0,498.0 C 646.3,496.0 646.7,491.3 649.0,499.0 C 651.3,506.7 655.7,529.3 657.0,544.0 C 658.3,558.7 657.8,574.3 657.0,587.0 C 656.2,599.7 653.7,611.3 652.0,620.0 C 650.3,628.7 649.7,631.0 647.0,639.0 C 644.3,647.0 640.7,657.8 636.0,668.0 C 631.3,678.2 625.3,689.7 619.0,700.0 C 612.7,710.3 601.2,724.2 598.0,730.0 C 594.8,735.8 599.7,732.5 600.0,735.0 C 600.3,737.5 600.8,742.0 600.0,745.0 C 599.2,748.0 597.7,750.7 595.0,753.0 C 592.3,755.3 587.2,757.7 584.0,759.0 C 580.8,760.3 581.3,760.5 576.0,761.0 C 570.7,761.5 558.8,762.5 552.0,762.0 C 545.2,761.5 538.5,759.0 535.0,758.0 C 531.5,757.0 532.7,757.5 531.0,756.0 C 529.3,754.5 526.0,751.8 525.0,749.0 C 524.0,746.2 519.7,758.3 525.0,739.0 C 530.3,719.7 555.8,647.7 557.0,633.0 C 558.2,618.3 538.2,645.8 532.0,651.0 C 525.8,656.2 522.8,660.5 520.0,664.0 C 517.2,667.5 517.0,670.7 515.0,672.0 C 513.0,673.3 511.7,675.2 508.0,672.0 C 504.3,668.8 497.5,657.8 493.0,653.0 C 488.5,648.2 485.5,646.2 481.0,643.0 C 476.5,639.8 463.2,617.8 466.0,634.0 C 468.8,650.2 492.7,720.8 498.0,740.0 C 503.3,759.2 499.0,746.3 498.0,749.0 C 497.0,751.7 494.0,754.3 492.0,756.0 C 490.0,757.7 489.8,758.0 486.0,759.0 C 482.2,760.0 474.0,761.5 469.0,762.0 C 464.0,762.5 461.0,762.5 456.0,762.0 C 451.0,761.5 443.0,760.0 439.0,759.0 C 435.0,758.0 434.3,757.5 432.0,756.0 C 429.7,754.5 426.5,751.7 425.0,750.0 C 423.5,748.3 423.2,749.7 423.0,746.0 C 422.8,742.3 427.5,736.2 424.0,728.0 C 420.5,719.8 408.3,707.3 402.0,697.0 C 395.7,686.7 390.2,675.0 386.0,666.0 C 381.8,657.0 380.0,653.0 377.0,643.0 C 374.0,633.0 370.0,617.7 368.0,606.0 C 366.0,594.3 365.5,582.0 365.0,573.0 C 364.5,564.0 364.3,560.8 365.0,552.0 C 365.7,543.2 367.3,529.2 369.0,520.0 C 370.7,510.8 373.3,500.8 375.0,497.0 Z M 274.0,379.0 C 276.3,374.5 282.3,364.5 288.0,357.0 C 293.7,349.5 298.3,343.2 308.0,334.0 C 317.7,324.8 334.3,310.7 346.0,302.0 C 357.7,293.3 367.3,287.8 378.0,282.0 C 388.7,276.2 401.2,270.7 410.0,267.0 C 418.8,263.3 425.0,261.7 431.0,260.0 C 437.0,258.3 440.3,258.8 446.0,257.0 C 451.7,255.2 456.7,251.3 465.0,249.0 C 473.3,246.7 485.3,244.0 496.0,243.0 C 506.7,242.0 519.8,242.3 529.0,243.0 C 538.2,243.7 542.5,244.5 551.0,247.0 C 559.5,249.5 570.7,255.0 580.0,258.0 C 589.3,261.0 598.8,262.3 607.0,265.0 C 615.2,267.7 619.3,269.2 629.0,274.0 C 638.7,278.8 653.7,286.7 665.0,294.0 C 676.3,301.3 687.0,309.5 697.0,318.0 C 707.0,326.5 718.0,337.5 725.0,345.0 C 732.0,352.5 735.0,357.2 739.0,363.0 C 743.0,368.8 747.5,376.3 749.0,380.0 C 750.5,383.7 750.3,384.2 748.0,385.0 C 745.7,385.8 742.2,386.0 735.0,385.0 C 727.8,384.0 713.3,381.2 705.0,379.0 C 696.7,376.8 691.5,374.7 685.0,372.0 C 678.5,369.3 672.2,366.3 666.0,363.0 C 659.8,359.7 656.2,358.3 648.0,352.0 C 639.8,345.7 618.5,318.0 617.0,325.0 C 615.5,332.0 635.3,380.8 639.0,394.0 C 642.7,407.2 639.5,400.2 639.0,404.0 C 638.5,407.8 638.5,411.3 636.0,417.0 C 633.5,422.7 627.7,432.7 624.0,438.0 C 620.3,443.3 618.2,445.2 614.0,449.0 C 609.8,452.8 606.5,456.3 599.0,461.0 C 591.5,465.7 579.7,472.8 569.0,477.0 C 558.3,481.2 542.0,484.7 535.0,486.0 C 528.0,487.3 528.3,485.8 527.0,485.0 C 525.7,484.2 526.7,481.8 527.0,481.0 C 527.3,480.2 528.8,480.7 529.0,480.0 C 529.2,479.3 530.5,477.0 528.0,477.0 C 525.5,477.0 519.3,480.0 514.0,480.0 C 508.7,480.0 499.5,477.3 496.0,477.0 C 492.5,476.7 493.2,477.3 493.0,478.0 C 492.8,478.7 494.8,479.7 495.0,481.0 C 495.2,482.3 495.2,485.2 494.0,486.0 C 492.8,486.8 494.2,487.3 488.0,486.0 C 481.8,484.7 465.8,481.0 457.0,478.0 C 448.2,475.0 442.8,472.7 435.0,468.0 C 427.2,463.3 417.2,456.7 410.0,450.0 C 402.8,443.3 396.2,434.7 392.0,428.0 C 387.8,421.3 386.3,415.8 385.0,410.0 C 383.7,404.2 380.5,407.3 384.0,393.0 C 387.5,378.7 404.7,333.0 406.0,324.0 C 407.3,315.0 397.2,334.3 392.0,339.0 C 386.8,343.7 383.7,346.7 375.0,352.0 C 366.3,357.3 349.7,366.5 340.0,371.0 C 330.3,375.5 324.7,376.8 317.0,379.0 C 309.3,381.2 301.2,383.2 294.0,384.0 C 286.8,384.8 277.3,384.8 274.0,384.0 C 270.7,383.2 271.7,383.5 274.0,379.0 Z M 604.0,406.0 C 603.8,405.0 603.2,405.5 602.0,406.0 C 600.8,406.5 598.7,408.2 597.0,409.0 C 595.3,409.8 593.8,410.3 592.0,411.0 C 590.2,411.7 588.3,412.3 586.0,413.0 C 583.7,413.7 580.5,414.5 578.0,415.0 C 575.5,415.5 574.8,415.7 571.0,416.0 C 567.2,416.3 557.5,416.5 555.0,417.0 C 552.5,417.5 555.0,417.8 556.0,419.0 C 557.0,420.2 559.7,422.8 561.0,424.0 C 562.3,425.2 562.8,425.3 564.0,426.0 C 565.2,426.7 566.8,427.5 568.0,428.0 C 569.2,428.5 569.8,428.7 571.0,429.0 C 572.2,429.3 573.5,429.8 575.0,430.0 C 576.5,430.2 578.3,430.2 580.0,430.0 C 581.7,429.8 583.7,429.3 585.0,429.0 C 586.3,428.7 586.5,428.7 588.0,428.0 C 589.5,427.3 592.2,426.3 594.0,425.0 C 595.8,423.7 597.8,421.3 599.0,420.0 C 600.2,418.7 600.5,417.8 601.0,417.0 C 601.5,416.2 601.7,415.8 602.0,415.0 C 602.3,414.2 602.7,413.5 603.0,412.0 C 603.3,410.5 604.2,407.0 604.0,406.0 Z M 420.0,405.0 C 419.7,405.8 419.7,410.0 420.0,412.0 C 420.3,414.0 421.3,415.7 422.0,417.0 C 422.7,418.3 423.0,418.8 424.0,420.0 C 425.0,421.2 426.8,423.0 428.0,424.0 C 429.2,425.0 429.8,425.3 431.0,426.0 C 432.2,426.7 433.8,427.5 435.0,428.0 C 436.2,428.5 436.8,428.7 438.0,429.0 C 439.2,429.3 440.5,429.8 442.0,430.0 C 443.5,430.2 445.3,430.2 447.0,430.0 C 448.7,429.8 450.3,429.5 452.0,429.0 C 453.7,428.5 455.8,427.5 457.0,427.0 C 458.2,426.5 458.2,426.5 459.0,426.0 C 459.8,425.5 460.7,425.2 462.0,424.0 C 463.3,422.8 466.2,420.3 467.0,419.0 C 467.8,417.7 469.7,416.5 467.0,416.0 C 464.3,415.5 454.8,416.2 451.0,416.0 C 447.2,415.8 447.2,415.8 444.0,415.0 C 440.8,414.2 435.7,412.3 432.0,411.0 C 428.3,409.7 424.0,408.0 422.0,407.0 C 420.0,406.0 420.3,404.2 420.0,405.0 Z" fill="#1a1a1a" fill-rule="evenodd"/>
</svg>