<svg xmlns="http://www.w3.org/2000/svg" viewBox="0 0 2580 2756" width="2580" height="2756">
  <defs>
    <linearGradient id="crownGold" x1="50%" y1="0%" x2="50%" y2="100%">
      <stop offset="0%" stop-color="#F5D04E"/>
      <stop offset="30%" stop-color="#E8B817"/>
      <stop offset="70%" stop-color="#D4960F"/>
      <stop offset="100%" stop-color="#B87A0A"/>
    </linearGradient>
  </defs>
  <path d="M 2022.0,789.0 C 1994.3,780.7 1950.2,775.5 1921.0,776.0 C 1891.8,776.5 1863.0,792.2 1847.0,792.0 C 1831.0,791.8 1839.5,759.3 1825.0,775.0 C 1810.5,790.7 1800.2,873.2 1760.0,886.0 C 1719.8,898.8 1650.3,860.7 1584.0,852.0 C 1517.7,843.3 1442.0,835.3 1362.0,834.0 C 1282.0,832.7 1186.8,835.3 1104.0,844.0 C 1021.2,852.7 916.0,897.7 865.0,886.0 C 814.0,874.3 812.8,789.7 798.0,774.0 C 783.2,758.3 799.0,791.7 776.0,792.0 C 753.0,792.3 698.2,771.8 660.0,776.0 C 621.8,780.2 577.0,795.7 547.0,817.0 C 517.0,838.3 493.7,873.7 480.0,904.0 C 466.3,934.3 464.3,964.7 465.0,999.0 C 465.7,1033.3 499.5,1064.7 484.0,1110.0 C 468.5,1155.3 397.3,1217.3 372.0,1271.0 C 346.7,1324.7 338.7,1397.0 332.0,1432.0 C 325.3,1467.0 319.0,1491.8 332.0,1481.0 C 345.0,1470.2 380.7,1395.8 410.0,1367.0 C 439.3,1338.2 507.0,1289.3 508.0,1308.0 C 509.0,1326.7 437.0,1426.0 416.0,1479.0 C 395.0,1532.0 387.0,1575.2 382.0,1626.0 C 377.0,1676.8 375.5,1726.0 386.0,1784.0 C 396.5,1842.0 422.3,1920.3 445.0,1974.0 C 467.7,2027.7 493.3,2066.2 522.0,2106.0 C 550.7,2145.8 606.2,2216.5 617.0,2213.0 C 627.8,2209.5 591.7,2130.8 587.0,2085.0 C 582.3,2039.2 580.5,1990.5 589.0,1938.0 C 597.5,1885.5 618.5,1816.7 638.0,1770.0 C 657.5,1723.3 702.0,1647.2 706.0,1658.0 C 710.0,1668.8 670.8,1779.2 662.0,1835.0 C 653.2,1890.8 651.0,1942.5 653.0,1993.0 C 655.0,2043.5 661.0,2090.7 674.0,2138.0 C 687.0,2185.3 714.5,2243.5 731.0,2277.0 C 747.5,2310.5 768.0,2345.5 773.0,2339.0 C 778.0,2332.5 761.5,2273.7 761.0,2238.0 C 760.5,2202.3 763.2,2160.0 770.0,2125.0 C 776.8,2090.0 789.2,2054.3 802.0,2028.0 C 814.8,2001.7 843.5,1957.0 847.0,1967.0 C 850.5,1977.0 827.2,2050.0 823.0,2088.0 C 818.8,2126.0 818.8,2161.0 822.0,2195.0 C 825.2,2229.0 830.8,2259.0 842.0,2292.0 C 853.2,2325.0 865.2,2357.2 889.0,2393.0 C 912.8,2428.8 946.7,2472.3 985.0,2507.0 C 1023.3,2541.7 1106.3,2603.2 1119.0,2601.0 C 1131.7,2598.8 1075.3,2527.2 1061.0,2494.0 C 1046.7,2460.8 1038.3,2432.3 1033.0,2402.0 C 1027.7,2371.7 1025.8,2337.5 1029.0,2312.0 C 1032.2,2286.5 1044.2,2241.2 1052.0,2249.0 C 1059.8,2256.8 1062.0,2316.8 1076.0,2359.0 C 1090.0,2401.2 1096.8,2438.8 1136.0,2502.0 C 1175.2,2565.2 1253.5,2736.2 1311.0,2738.0 C 1368.5,2739.8 1442.8,2572.3 1481.0,2513.0 C 1519.2,2453.7 1524.8,2426.0 1540.0,2382.0 C 1555.2,2338.0 1563.0,2261.0 1572.0,2249.0 C 1581.0,2237.0 1591.0,2284.8 1594.0,2310.0 C 1597.0,2335.2 1596.0,2367.8 1590.0,2400.0 C 1584.0,2432.2 1572.3,2469.5 1558.0,2503.0 C 1543.7,2536.5 1490.2,2600.7 1504.0,2601.0 C 1517.8,2601.3 1602.3,2540.0 1641.0,2505.0 C 1679.7,2470.0 1712.5,2427.0 1736.0,2391.0 C 1759.5,2355.0 1771.2,2323.0 1782.0,2289.0 C 1792.8,2255.0 1798.0,2221.0 1801.0,2187.0 C 1804.0,2153.0 1804.0,2121.8 1800.0,2085.0 C 1796.0,2048.2 1772.8,1974.0 1777.0,1966.0 C 1781.2,1958.0 1812.2,2009.2 1825.0,2037.0 C 1837.8,2064.8 1850.0,2082.5 1854.0,2133.0 C 1858.0,2183.5 1843.7,2314.0 1849.0,2340.0 C 1854.3,2366.0 1870.3,2319.2 1886.0,2289.0 C 1901.7,2258.8 1929.2,2205.8 1943.0,2159.0 C 1956.8,2112.2 1965.5,2057.7 1969.0,2008.0 C 1972.5,1958.3 1972.5,1919.2 1964.0,1861.0 C 1955.5,1802.8 1914.5,1673.8 1918.0,1659.0 C 1921.5,1644.2 1965.7,1725.0 1985.0,1772.0 C 2004.3,1819.0 2025.5,1888.5 2034.0,1941.0 C 2042.5,1993.5 2040.8,2041.5 2036.0,2087.0 C 2031.2,2132.5 1989.8,2217.2 2005.0,2214.0 C 2020.2,2210.8 2094.3,2117.3 2127.0,2068.0 C 2159.7,2018.7 2182.2,1968.8 2201.0,1918.0 C 2219.8,1867.2 2233.7,1815.2 2240.0,1763.0 C 2246.3,1710.8 2246.0,1656.2 2239.0,1605.0 C 2232.0,1553.8 2218.0,1505.5 2198.0,1456.0 C 2178.0,1406.5 2117.8,1324.2 2119.0,1308.0 C 2120.2,1291.8 2176.2,1330.3 2205.0,1359.0 C 2233.8,1387.7 2278.0,1472.8 2292.0,1480.0 C 2306.0,1487.2 2298.8,1443.2 2289.0,1402.0 C 2279.2,1360.8 2258.0,1281.8 2233.0,1233.0 C 2208.0,1184.2 2151.5,1151.3 2139.0,1109.0 C 2126.5,1066.7 2158.2,1015.2 2158.0,979.0 C 2157.8,942.8 2149.8,917.5 2138.0,892.0 C 2126.2,866.5 2106.3,843.2 2087.0,826.0 C 2067.7,808.8 2049.7,797.3 2022.0,789.0 Z M 1091.0,2046.0 C 1096.2,2042.7 1106.7,2037.0 1115.0,2033.0 C 1123.3,2029.0 1126.7,2027.2 1141.0,2022.0 C 1155.3,2016.8 1174.7,2008.7 1201.0,2002.0 C 1227.3,1995.3 1278.2,1985.3 1299.0,1982.0 C 1319.8,1978.7 1309.0,1979.5 1326.0,1982.0 C 1343.0,1984.5 1380.0,1992.2 1401.0,1997.0 C 1422.0,2001.8 1437.8,2006.7 1452.0,2011.0 C 1466.2,2015.3 1473.2,2017.5 1486.0,2023.0 C 1498.8,2028.5 1520.2,2039.2 1529.0,2044.0 C 1537.8,2048.8 1535.3,2046.5 1539.0,2052.0 C 1542.7,2057.5 1548.3,2069.5 1551.0,2077.0 C 1553.7,2084.5 1554.5,2088.2 1555.0,2097.0 C 1555.5,2105.8 1555.0,2121.8 1554.0,2130.0 C 1553.0,2138.2 1551.2,2141.0 1549.0,2146.0 C 1546.8,2151.0 1543.2,2157.8 1541.0,2160.0 C 1538.8,2162.2 1537.3,2161.3 1536.0,2159.0 C 1534.7,2156.7 1534.8,2151.2 1533.0,2146.0 C 1531.2,2140.8 1526.3,2129.3 1525.0,2128.0 C 1523.7,2126.7 1526.2,2132.5 1525.0,2138.0 C 1523.8,2143.5 1520.8,2153.2 1518.0,2161.0 C 1515.2,2168.8 1511.3,2178.0 1508.0,2185.0 C 1504.7,2192.0 1502.5,2196.3 1498.0,2203.0 C 1493.5,2209.7 1489.3,2216.3 1481.0,2225.0 C 1472.7,2233.7 1454.7,2250.0 1448.0,2255.0 C 1441.3,2260.0 1441.7,2257.3 1441.0,2255.0 C 1440.3,2252.7 1443.5,2246.5 1444.0,2241.0 C 1444.5,2235.5 1445.0,2227.3 1444.0,2222.0 C 1443.0,2216.7 1440.3,2208.0 1438.0,2209.0 C 1435.7,2210.0 1434.0,2220.7 1430.0,2228.0 C 1426.0,2235.3 1420.5,2244.5 1414.0,2253.0 C 1407.5,2261.5 1398.2,2271.8 1391.0,2279.0 C 1383.8,2286.2 1379.8,2289.3 1371.0,2296.0 C 1362.2,2302.7 1347.3,2313.0 1338.0,2319.0 C 1328.7,2325.0 1320.0,2329.8 1315.0,2332.0 C 1310.0,2334.2 1312.5,2333.7 1308.0,2332.0 C 1303.5,2330.3 1295.2,2326.2 1288.0,2322.0 C 1280.8,2317.8 1274.0,2313.7 1265.0,2307.0 C 1256.0,2300.3 1243.7,2291.2 1234.0,2282.0 C 1224.3,2272.8 1213.5,2260.2 1207.0,2252.0 C 1200.5,2243.8 1198.7,2240.2 1195.0,2233.0 C 1191.3,2225.8 1187.2,2212.5 1185.0,2209.0 C 1182.8,2205.5 1183.2,2209.7 1182.0,2212.0 C 1180.8,2214.3 1178.5,2215.8 1178.0,2223.0 C 1177.5,2230.2 1179.8,2249.8 1179.0,2255.0 C 1178.2,2260.2 1177.0,2256.7 1173.0,2254.0 C 1169.0,2251.3 1161.5,2245.2 1155.0,2239.0 C 1148.5,2232.8 1140.3,2224.8 1134.0,2217.0 C 1127.7,2209.2 1122.5,2203.3 1117.0,2192.0 C 1111.5,2180.7 1104.0,2159.7 1101.0,2149.0 C 1098.0,2138.3 1100.2,2130.2 1099.0,2128.0 C 1097.8,2125.8 1096.0,2130.3 1094.0,2136.0 C 1092.0,2141.7 1089.0,2157.8 1087.0,2162.0 C 1085.0,2166.2 1084.2,2164.0 1082.0,2161.0 C 1079.8,2158.0 1076.2,2149.7 1074.0,2144.0 C 1071.8,2138.3 1070.0,2134.5 1069.0,2127.0 C 1068.0,2119.5 1066.8,2108.8 1068.0,2099.0 C 1069.2,2089.2 1073.3,2075.7 1076.0,2068.0 C 1078.7,2060.3 1081.5,2056.7 1084.0,2053.0 C 1086.5,2049.3 1085.8,2049.3 1091.0,2046.0 Z M 1772.0,1095.0 C 1772.8,1094.2 1768.8,1089.7 1776.0,1095.0 C 1783.2,1100.3 1800.0,1113.8 1815.0,1127.0 C 1830.0,1140.2 1851.2,1159.7 1866.0,1174.0 C 1880.8,1188.3 1891.2,1198.8 1904.0,1213.0 C 1916.8,1227.2 1929.7,1242.5 1943.0,1259.0 C 1956.3,1275.5 1971.8,1295.3 1984.0,1312.0 C 1996.2,1328.7 2006.0,1343.7 2016.0,1359.0 C 2026.0,1374.3 2033.3,1384.8 2044.0,1404.0 C 2054.7,1423.2 2070.7,1454.5 2080.0,1474.0 C 2089.3,1493.5 2094.3,1506.5 2100.0,1521.0 C 2105.7,1535.5 2109.0,1544.7 2114.0,1561.0 C 2119.0,1577.3 2126.0,1602.2 2130.0,1619.0 C 2134.0,1635.8 2135.5,1644.8 2138.0,1662.0 C 2140.5,1679.2 2143.7,1704.2 2145.0,1722.0 C 2146.3,1739.8 2146.5,1750.7 2146.0,1769.0 C 2145.5,1787.3 2143.7,1815.8 2142.0,1832.0 C 2140.3,1848.2 2138.0,1860.3 2136.0,1866.0 C 2134.0,1871.7 2131.3,1871.2 2130.0,1866.0 C 2128.7,1860.8 2129.5,1848.5 2128.0,1835.0 C 2126.5,1821.5 2125.7,1808.5 2121.0,1785.0 C 2116.3,1761.5 2109.3,1724.8 2100.0,1694.0 C 2090.7,1663.2 2076.2,1627.8 2065.0,1600.0 C 2053.8,1572.2 2049.7,1560.8 2033.0,1527.0 C 2016.3,1493.2 1984.8,1433.2 1965.0,1397.0 C 1945.2,1360.8 1934.0,1342.5 1914.0,1310.0 C 1894.0,1277.5 1868.8,1237.0 1845.0,1202.0 C 1821.2,1167.0 1783.2,1117.8 1771.0,1100.0 C 1758.8,1082.2 1771.2,1095.8 1772.0,1095.0 Z M 852.0,1096.0 C 852.8,1096.8 862.7,1084.8 852.0,1100.0 C 841.3,1115.2 809.3,1156.0 788.0,1187.0 C 766.7,1218.0 746.8,1248.7 724.0,1286.0 C 701.2,1323.3 672.2,1372.8 651.0,1411.0 C 629.8,1449.2 612.8,1482.5 597.0,1515.0 C 581.2,1547.5 567.5,1578.5 556.0,1606.0 C 544.5,1633.5 534.7,1661.2 528.0,1680.0 C 521.3,1698.8 520.3,1701.7 516.0,1719.0 C 511.7,1736.3 506.0,1759.7 502.0,1784.0 C 498.0,1808.3 494.7,1851.7 492.0,1865.0 C 489.3,1878.3 487.8,1869.8 486.0,1864.0 C 484.2,1858.2 482.5,1844.3 481.0,1830.0 C 479.5,1815.7 477.7,1794.8 477.0,1778.0 C 476.3,1761.2 476.3,1744.7 477.0,1729.0 C 477.7,1713.3 477.7,1705.2 481.0,1684.0 C 484.3,1662.8 491.3,1625.5 497.0,1602.0 C 502.7,1578.5 508.7,1561.3 515.0,1543.0 C 521.3,1524.7 526.7,1510.7 535.0,1492.0 C 543.3,1473.3 555.3,1449.5 565.0,1431.0 C 574.7,1412.5 579.5,1402.3 593.0,1381.0 C 606.5,1359.7 633.0,1321.5 646.0,1303.0 C 659.0,1284.5 656.5,1287.3 671.0,1270.0 C 685.5,1252.7 712.8,1220.5 733.0,1199.0 C 753.2,1177.5 773.0,1158.3 792.0,1141.0 C 811.0,1123.7 837.0,1102.5 847.0,1095.0 C 857.0,1087.5 851.2,1095.2 852.0,1096.0 Z M 919.0,1029.0 C 938.0,1018.3 999.7,984.7 1028.0,973.0 C 1056.3,961.3 1070.0,961.5 1089.0,959.0 C 1108.0,956.5 1125.0,956.3 1142.0,958.0 C 1159.0,959.7 1176.7,964.2 1191.0,969.0 C 1205.3,973.8 1215.2,979.0 1228.0,987.0 C 1240.8,995.0 1254.2,1004.3 1268.0,1017.0 C 1281.8,1029.7 1295.5,1064.0 1311.0,1063.0 C 1326.5,1062.0 1342.8,1026.0 1361.0,1011.0 C 1379.2,996.0 1401.2,981.7 1420.0,973.0 C 1438.8,964.3 1456.8,961.5 1474.0,959.0 C 1491.2,956.5 1500.3,954.8 1523.0,958.0 C 1545.7,961.2 1579.2,965.7 1610.0,978.0 C 1640.8,990.3 1691.7,1022.0 1708.0,1032.0 C 1724.3,1042.0 1718.3,1035.7 1708.0,1038.0 C 1697.7,1040.3 1643.0,1033.8 1646.0,1046.0 C 1649.0,1058.2 1704.3,1087.0 1726.0,1111.0 C 1747.7,1135.0 1763.2,1159.2 1776.0,1190.0 C 1788.8,1220.8 1798.0,1257.2 1803.0,1296.0 C 1808.0,1334.8 1808.5,1389.5 1806.0,1423.0 C 1803.5,1456.5 1795.8,1475.7 1788.0,1497.0 C 1780.2,1518.3 1770.2,1534.3 1759.0,1551.0 C 1747.8,1567.7 1737.7,1580.2 1721.0,1597.0 C 1704.3,1613.8 1666.8,1624.0 1659.0,1652.0 C 1651.2,1680.0 1683.2,1745.0 1674.0,1765.0 C 1664.8,1785.0 1622.2,1771.5 1604.0,1772.0 C 1585.8,1772.5 1573.7,1766.8 1565.0,1768.0 C 1556.3,1769.2 1552.2,1773.5 1552.0,1779.0 C 1551.8,1784.5 1544.0,1797.8 1564.0,1801.0 C 1584.0,1804.2 1655.7,1789.3 1672.0,1798.0 C 1688.3,1806.7 1681.7,1845.7 1662.0,1853.0 C 1642.3,1860.3 1575.3,1842.3 1554.0,1842.0 C 1532.7,1841.7 1537.3,1847.5 1534.0,1851.0 C 1530.7,1854.5 1532.3,1859.3 1534.0,1863.0 C 1535.7,1866.7 1524.5,1870.0 1544.0,1873.0 C 1563.5,1876.0 1636.7,1872.2 1651.0,1881.0 C 1665.3,1889.8 1639.0,1912.5 1630.0,1926.0 C 1621.0,1939.5 1611.3,1952.8 1597.0,1962.0 C 1582.7,1971.2 1566.2,1980.3 1544.0,1981.0 C 1521.8,1981.7 1491.3,1976.3 1464.0,1966.0 C 1436.7,1955.7 1399.3,1931.8 1380.0,1919.0 C 1360.7,1906.2 1355.5,1897.8 1348.0,1889.0 C 1340.5,1880.2 1337.3,1878.3 1335.0,1866.0 C 1332.7,1853.7 1330.3,1830.7 1334.0,1815.0 C 1337.7,1799.3 1347.7,1784.2 1357.0,1772.0 C 1366.3,1759.8 1372.3,1752.7 1390.0,1742.0 C 1407.7,1731.3 1445.8,1718.2 1463.0,1708.0 C 1480.2,1697.8 1486.5,1692.7 1493.0,1681.0 C 1499.5,1669.3 1503.2,1655.7 1502.0,1638.0 C 1500.8,1620.3 1488.7,1579.3 1486.0,1575.0 C 1483.3,1570.7 1488.0,1599.2 1486.0,1612.0 C 1484.0,1624.8 1483.2,1649.7 1474.0,1652.0 C 1464.8,1654.3 1455.7,1627.3 1431.0,1626.0 C 1406.3,1624.7 1366.2,1644.0 1326.0,1644.0 C 1285.8,1644.0 1219.3,1625.2 1190.0,1626.0 C 1160.7,1626.8 1158.7,1650.3 1150.0,1649.0 C 1141.3,1647.7 1140.3,1630.2 1138.0,1618.0 C 1135.7,1605.8 1138.7,1573.5 1136.0,1576.0 C 1133.3,1578.5 1123.0,1615.5 1122.0,1633.0 C 1121.0,1650.5 1124.7,1669.2 1130.0,1681.0 C 1135.3,1692.8 1137.5,1694.3 1154.0,1704.0 C 1170.5,1713.7 1209.5,1726.7 1229.0,1739.0 C 1248.5,1751.3 1261.0,1764.5 1271.0,1778.0 C 1281.0,1791.5 1286.2,1805.0 1289.0,1820.0 C 1291.8,1835.0 1292.2,1854.5 1288.0,1868.0 C 1283.8,1881.5 1275.7,1889.5 1264.0,1901.0 C 1252.3,1912.5 1242.2,1924.2 1218.0,1937.0 C 1193.8,1949.8 1142.3,1970.7 1119.0,1978.0 C 1095.7,1985.3 1090.2,1981.8 1078.0,1981.0 C 1065.8,1980.2 1060.2,1982.2 1046.0,1973.0 C 1031.8,1963.8 1005.2,1941.5 993.0,1926.0 C 980.8,1910.5 958.8,1888.8 973.0,1880.0 C 987.2,1871.2 1058.3,1877.3 1078.0,1873.0 C 1097.7,1868.7 1091.2,1859.3 1091.0,1854.0 C 1090.8,1848.7 1098.8,1841.2 1077.0,1841.0 C 1055.2,1840.8 981.0,1860.3 960.0,1853.0 C 939.0,1845.7 934.8,1805.7 951.0,1797.0 C 967.2,1788.3 1037.2,1802.0 1057.0,1801.0 C 1076.8,1800.0 1067.7,1794.7 1070.0,1791.0 C 1072.3,1787.3 1073.5,1782.8 1071.0,1779.0 C 1068.5,1775.2 1075.3,1770.2 1055.0,1768.0 C 1034.7,1765.8 964.2,1785.0 949.0,1766.0 C 933.8,1747.0 971.0,1681.5 964.0,1654.0 C 957.0,1626.5 924.5,1619.7 907.0,1601.0 C 889.5,1582.3 872.0,1562.5 859.0,1542.0 C 846.0,1521.5 836.0,1499.3 829.0,1478.0 C 822.0,1456.7 818.3,1445.5 817.0,1414.0 C 815.7,1382.5 816.0,1326.3 821.0,1289.0 C 826.0,1251.7 834.2,1219.7 847.0,1190.0 C 859.8,1160.3 876.5,1135.2 898.0,1111.0 C 919.5,1086.8 973.3,1057.3 976.0,1045.0 C 978.7,1032.7 923.5,1039.7 914.0,1037.0 C 904.5,1034.3 900.0,1039.7 919.0,1029.0 Z M 1721.0,1218.0 C 1713.3,1219.5 1688.0,1226.5 1676.0,1229.0 C 1664.0,1231.5 1659.7,1231.8 1649.0,1233.0 C 1638.3,1234.2 1622.0,1234.8 1612.0,1236.0 C 1602.0,1237.2 1598.2,1238.0 1589.0,1240.0 C 1579.8,1242.0 1565.0,1245.7 1557.0,1248.0 C 1549.0,1250.3 1547.8,1250.8 1541.0,1254.0 C 1534.2,1257.2 1522.5,1263.0 1516.0,1267.0 C 1509.5,1271.0 1506.0,1274.5 1502.0,1278.0 C 1498.0,1281.5 1496.7,1282.3 1492.0,1288.0 C 1487.3,1293.7 1478.7,1304.8 1474.0,1312.0 C 1469.3,1319.2 1467.2,1323.3 1464.0,1331.0 C 1460.8,1338.7 1457.2,1349.2 1455.0,1358.0 C 1452.8,1366.8 1451.7,1374.7 1451.0,1384.0 C 1450.3,1393.3 1450.5,1405.2 1451.0,1414.0 C 1451.5,1422.8 1452.7,1429.7 1454.0,1437.0 C 1455.3,1444.3 1456.8,1450.5 1459.0,1458.0 C 1461.2,1465.5 1464.7,1475.7 1467.0,1482.0 C 1469.3,1488.3 1472.3,1495.2 1473.0,1496.0 C 1473.7,1496.8 1471.3,1495.2 1471.0,1487.0 C 1470.7,1478.8 1470.7,1456.2 1471.0,1447.0 C 1471.3,1437.8 1471.5,1438.3 1473.0,1432.0 C 1474.5,1425.7 1477.2,1415.7 1480.0,1409.0 C 1482.8,1402.3 1487.0,1396.2 1490.0,1392.0 C 1493.0,1387.8 1495.0,1386.5 1498.0,1384.0 C 1501.0,1381.5 1504.2,1379.0 1508.0,1377.0 C 1511.8,1375.0 1516.7,1373.3 1521.0,1372.0 C 1525.3,1370.7 1524.3,1369.3 1534.0,1369.0 C 1543.7,1368.7 1567.7,1370.3 1579.0,1370.0 C 1590.3,1369.7 1592.2,1369.5 1602.0,1367.0 C 1611.8,1364.5 1629.8,1358.2 1638.0,1355.0 C 1646.2,1351.8 1647.0,1350.5 1651.0,1348.0 C 1655.0,1345.5 1657.3,1343.8 1662.0,1340.0 C 1666.7,1336.2 1674.7,1329.2 1679.0,1325.0 C 1683.3,1320.8 1683.8,1320.5 1688.0,1315.0 C 1692.2,1309.5 1700.0,1298.3 1704.0,1292.0 C 1708.0,1285.7 1709.7,1282.2 1712.0,1277.0 C 1714.3,1271.8 1716.3,1266.8 1718.0,1261.0 C 1719.7,1255.2 1721.3,1248.8 1722.0,1242.0 C 1722.7,1235.2 1722.2,1224.0 1722.0,1220.0 C 1721.8,1216.0 1728.7,1216.5 1721.0,1218.0 Z M 901.0,1218.0 C 899.2,1221.7 900.8,1235.7 902.0,1244.0 C 903.2,1252.3 905.5,1260.7 908.0,1268.0 C 910.5,1275.3 914.0,1282.2 917.0,1288.0 C 920.0,1293.8 922.7,1298.2 926.0,1303.0 C 929.3,1307.8 933.2,1312.7 937.0,1317.0 C 940.8,1321.3 944.2,1324.7 949.0,1329.0 C 953.8,1333.3 960.5,1339.0 966.0,1343.0 C 971.5,1347.0 975.0,1349.5 982.0,1353.0 C 989.0,1356.5 1001.0,1361.5 1008.0,1364.0 C 1015.0,1366.5 1019.0,1367.0 1024.0,1368.0 C 1029.0,1369.0 1027.0,1369.8 1038.0,1370.0 C 1049.0,1370.2 1080.3,1369.0 1090.0,1369.0 C 1099.7,1369.0 1092.8,1369.2 1096.0,1370.0 C 1099.2,1370.8 1105.5,1372.7 1109.0,1374.0 C 1112.5,1375.3 1113.7,1375.7 1117.0,1378.0 C 1120.3,1380.3 1125.8,1384.8 1129.0,1388.0 C 1132.2,1391.2 1133.8,1393.7 1136.0,1397.0 C 1138.2,1400.3 1140.3,1404.5 1142.0,1408.0 C 1143.7,1411.5 1144.7,1413.7 1146.0,1418.0 C 1147.3,1422.3 1149.0,1428.8 1150.0,1434.0 C 1151.0,1439.2 1151.7,1441.0 1152.0,1449.0 C 1152.3,1457.0 1152.5,1474.2 1152.0,1482.0 C 1151.5,1489.8 1148.0,1497.2 1149.0,1496.0 C 1150.0,1494.8 1154.8,1484.3 1158.0,1475.0 C 1161.2,1465.7 1165.7,1450.3 1168.0,1440.0 C 1170.3,1429.7 1171.3,1422.7 1172.0,1413.0 C 1172.7,1403.3 1172.7,1391.5 1172.0,1382.0 C 1171.3,1372.5 1170.2,1364.7 1168.0,1356.0 C 1165.8,1347.3 1161.8,1337.0 1159.0,1330.0 C 1156.2,1323.0 1155.0,1320.3 1151.0,1314.0 C 1147.0,1307.7 1140.0,1298.0 1135.0,1292.0 C 1130.0,1286.0 1126.3,1282.5 1121.0,1278.0 C 1115.7,1273.5 1109.2,1268.8 1103.0,1265.0 C 1096.8,1261.2 1091.3,1258.2 1084.0,1255.0 C 1076.7,1251.8 1070.0,1249.0 1059.0,1246.0 C 1048.0,1243.0 1028.7,1239.0 1018.0,1237.0 C 1007.3,1235.0 1003.8,1234.8 995.0,1234.0 C 986.2,1233.2 972.5,1232.7 965.0,1232.0 C 957.5,1231.3 953.5,1230.7 950.0,1230.0 C 946.5,1229.3 946.0,1228.3 944.0,1228.0 C 942.0,1227.7 943.2,1229.0 938.0,1228.0 C 932.8,1227.0 919.2,1223.7 913.0,1222.0 C 906.8,1220.3 902.8,1214.3 901.0,1218.0 Z M 1896.0,841.0 C 1903.2,838.7 1913.5,835.3 1924.0,834.0 C 1934.5,832.7 1949.7,832.5 1959.0,833.0 C 1968.3,833.5 1973.3,835.3 1980.0,837.0 C 1986.7,838.7 1992.7,840.3 1999.0,843.0 C 2005.3,845.7 2010.3,848.0 2018.0,853.0 C 2025.7,858.0 2036.7,865.2 2045.0,873.0 C 2053.3,880.8 2062.2,891.8 2068.0,900.0 C 2073.8,908.2 2076.3,913.3 2080.0,922.0 C 2083.7,930.7 2087.7,941.8 2090.0,952.0 C 2092.3,962.2 2093.7,971.5 2094.0,983.0 C 2094.3,994.5 2093.3,1009.3 2092.0,1021.0 C 2090.7,1032.7 2088.8,1041.8 2086.0,1053.0 C 2083.2,1064.2 2078.0,1079.3 2075.0,1088.0 C 2072.0,1096.7 2070.7,1099.5 2068.0,1105.0 C 2065.3,1110.5 2061.8,1116.5 2059.0,1121.0 C 2056.2,1125.5 2054.7,1127.8 2051.0,1132.0 C 2047.3,1136.2 2041.7,1142.3 2037.0,1146.0 C 2032.3,1149.7 2029.8,1151.5 2023.0,1154.0 C 2016.2,1156.5 2002.2,1159.7 1996.0,1161.0 C 1989.8,1162.3 1989.8,1162.0 1986.0,1162.0 C 1982.2,1162.0 1975.2,1162.0 1973.0,1161.0 C 1970.8,1160.0 1971.5,1159.0 1973.0,1156.0 C 1974.5,1153.0 1978.2,1150.0 1982.0,1143.0 C 1985.8,1136.0 1992.5,1122.0 1996.0,1114.0 C 1999.5,1106.0 2001.0,1102.7 2003.0,1095.0 C 2005.0,1087.3 2007.3,1077.5 2008.0,1068.0 C 2008.7,1058.5 2007.8,1045.7 2007.0,1038.0 C 2006.2,1030.3 2004.7,1026.7 2003.0,1022.0 C 2001.3,1017.3 2000.0,1014.3 1997.0,1010.0 C 1994.0,1005.7 1990.2,1000.3 1985.0,996.0 C 1979.8,991.7 1972.0,986.7 1966.0,984.0 C 1960.0,981.3 1957.8,980.8 1949.0,980.0 C 1940.2,979.2 1919.0,979.8 1913.0,979.0 C 1907.0,978.2 1911.2,978.2 1913.0,975.0 C 1914.8,971.8 1920.5,964.0 1924.0,960.0 C 1927.5,956.0 1930.3,953.8 1934.0,951.0 C 1937.7,948.2 1940.0,945.7 1946.0,943.0 C 1952.0,940.3 1964.8,936.5 1970.0,935.0 C 1975.2,933.5 1973.7,934.0 1977.0,934.0 C 1980.3,934.0 1989.8,936.2 1990.0,935.0 C 1990.2,933.8 1984.2,930.2 1978.0,927.0 C 1971.8,923.8 1959.5,918.3 1953.0,916.0 C 1946.5,913.7 1946.3,913.3 1939.0,913.0 C 1931.7,912.7 1917.7,912.8 1909.0,914.0 C 1900.3,915.2 1892.8,918.0 1887.0,920.0 C 1881.2,922.0 1880.3,921.8 1874.0,926.0 C 1867.7,930.2 1856.8,937.8 1849.0,945.0 C 1841.2,952.2 1831.5,965.2 1827.0,969.0 C 1822.5,972.8 1822.8,970.3 1822.0,968.0 C 1821.2,965.7 1821.3,961.8 1822.0,955.0 C 1822.7,948.2 1824.2,935.3 1826.0,927.0 C 1827.8,918.7 1830.3,911.7 1833.0,905.0 C 1835.7,898.3 1838.0,893.3 1842.0,887.0 C 1846.0,880.7 1852.5,872.2 1857.0,867.0 C 1861.5,861.8 1865.0,859.2 1869.0,856.0 C 1873.0,852.8 1876.5,850.5 1881.0,848.0 C 1885.5,845.5 1888.8,843.3 1896.0,841.0 Z M 720.0,838.0 C 726.0,839.5 725.7,839.3 731.0,842.0 C 736.3,844.7 746.0,849.8 752.0,854.0 C 758.0,858.2 762.5,862.2 767.0,867.0 C 771.5,871.8 775.5,877.5 779.0,883.0 C 782.5,888.5 785.0,892.5 788.0,900.0 C 791.0,907.5 795.0,920.0 797.0,928.0 C 799.0,936.0 799.7,941.2 800.0,948.0 C 800.3,954.8 800.0,965.7 799.0,969.0 C 798.0,972.3 796.0,969.8 794.0,968.0 C 792.0,966.2 790.8,962.3 787.0,958.0 C 783.2,953.7 775.8,946.3 771.0,942.0 C 766.2,937.7 764.3,935.8 758.0,932.0 C 751.7,928.2 739.5,921.8 733.0,919.0 C 726.5,916.2 723.3,916.0 719.0,915.0 C 714.7,914.0 713.5,913.2 707.0,913.0 C 700.5,912.8 688.3,912.7 680.0,914.0 C 671.7,915.3 664.7,917.8 657.0,921.0 C 649.3,924.2 638.2,930.7 634.0,933.0 C 629.8,935.3 630.0,934.8 632.0,935.0 C 634.0,935.2 641.3,933.7 646.0,934.0 C 650.7,934.3 654.2,935.0 660.0,937.0 C 665.8,939.0 675.8,943.3 681.0,946.0 C 686.2,948.7 687.5,950.0 691.0,953.0 C 694.5,956.0 699.0,960.5 702.0,964.0 C 705.0,967.5 708.0,971.5 709.0,974.0 C 710.0,976.5 712.8,978.2 708.0,979.0 C 703.2,979.8 688.7,978.0 680.0,979.0 C 671.3,980.0 662.3,982.7 656.0,985.0 C 649.7,987.3 647.3,988.3 642.0,993.0 C 636.7,997.7 627.8,1008.0 624.0,1013.0 C 620.2,1018.0 620.7,1018.0 619.0,1023.0 C 617.3,1028.0 614.7,1034.3 614.0,1043.0 C 613.3,1051.7 613.2,1063.8 615.0,1075.0 C 616.8,1086.2 620.7,1098.7 625.0,1110.0 C 629.3,1121.3 637.0,1135.3 641.0,1143.0 C 645.0,1150.7 647.8,1153.0 649.0,1156.0 C 650.2,1159.0 649.7,1160.0 648.0,1161.0 C 646.3,1162.0 643.5,1162.0 639.0,1162.0 C 634.5,1162.0 627.2,1162.0 621.0,1161.0 C 614.8,1160.0 607.5,1158.2 602.0,1156.0 C 596.5,1153.8 592.7,1151.7 588.0,1148.0 C 583.3,1144.3 578.0,1138.7 574.0,1134.0 C 570.0,1129.3 568.0,1126.8 564.0,1120.0 C 560.0,1113.2 554.3,1103.5 550.0,1093.0 C 545.7,1082.5 541.2,1069.7 538.0,1057.0 C 534.8,1044.3 532.3,1030.7 531.0,1017.0 C 529.7,1003.3 529.5,986.2 530.0,975.0 C 530.5,963.8 532.5,957.2 534.0,950.0 C 535.5,942.8 536.8,938.2 539.0,932.0 C 541.2,925.8 542.3,920.8 547.0,913.0 C 551.7,905.2 560.2,893.0 567.0,885.0 C 573.8,877.0 580.8,870.8 588.0,865.0 C 595.2,859.2 601.5,854.5 610.0,850.0 C 618.5,845.5 630.0,840.8 639.0,838.0 C 648.0,835.2 654.7,833.8 664.0,833.0 C 673.3,832.2 685.7,832.2 695.0,833.0 C 704.3,833.8 714.0,836.5 720.0,838.0 Z" fill="#1a1a1a" fill-rule="evenodd"/>
  <path d="M 559.0,327.0 C 595.5,414.0 763.0,767.7 841.0,848.0 C 919.0,928.3 957.0,819.0 1027.0,809.0 C 1097.0,799.0 1197.3,791.2 1261.0,788.0 C 1324.7,784.8 1360.8,787.7 1409.0,790.0 C 1457.2,792.3 1487.3,792.3 1550.0,802.0 C 1612.7,811.7 1699.7,927.5 1785.0,848.0 C 1870.3,768.5 2025.3,412.2 2062.0,325.0 C 2098.7,237.8 2021.8,322.0 2005.0,325.0 C 1988.2,328.0 1971.5,335.3 1961.0,343.0 C 1950.5,350.7 1944.7,357.7 1942.0,371.0 C 1939.3,384.3 1946.3,409.3 1945.0,423.0 C 1943.7,436.7 1939.8,443.8 1934.0,453.0 C 1928.2,462.2 1921.2,471.0 1910.0,478.0 C 1898.8,485.0 1885.3,493.8 1867.0,495.0 C 1848.7,496.2 1816.5,490.3 1800.0,485.0 C 1783.5,479.7 1775.8,470.2 1768.0,463.0 C 1760.2,455.8 1757.2,451.0 1753.0,442.0 C 1748.8,433.0 1743.5,421.2 1743.0,409.0 C 1742.5,396.8 1744.0,379.5 1750.0,369.0 C 1756.0,358.5 1773.2,354.3 1779.0,346.0 C 1784.8,337.7 1786.8,327.8 1785.0,319.0 C 1783.2,310.2 1774.8,298.8 1768.0,293.0 C 1761.2,287.2 1752.3,284.3 1744.0,284.0 C 1735.7,283.7 1725.0,286.7 1718.0,291.0 C 1711.0,295.3 1704.8,302.3 1702.0,310.0 C 1699.2,317.7 1698.8,329.2 1701.0,337.0 C 1703.2,344.8 1714.0,350.8 1715.0,357.0 C 1716.0,363.2 1712.3,366.7 1707.0,374.0 C 1701.7,381.3 1693.8,391.8 1683.0,401.0 C 1672.2,410.2 1663.7,419.8 1642.0,429.0 C 1620.3,438.2 1576.5,451.7 1553.0,456.0 C 1529.5,460.3 1517.8,457.2 1501.0,455.0 C 1484.2,452.8 1468.2,449.7 1452.0,443.0 C 1435.8,436.3 1418.0,426.7 1404.0,415.0 C 1390.0,403.3 1377.3,387.8 1368.0,373.0 C 1358.7,358.2 1352.7,344.5 1348.0,326.0 C 1343.3,307.5 1329.0,272.3 1340.0,262.0 C 1351.0,251.7 1398.8,259.3 1414.0,264.0 C 1429.2,268.7 1424.7,284.8 1431.0,290.0 C 1437.3,295.2 1445.3,296.0 1452.0,295.0 C 1458.7,294.0 1461.0,293.3 1471.0,284.0 C 1481.0,274.7 1515.0,255.0 1512.0,239.0 C 1509.0,223.0 1466.0,196.0 1453.0,188.0 C 1440.0,180.0 1440.8,186.7 1434.0,191.0 C 1427.2,195.3 1427.5,210.2 1412.0,214.0 C 1396.5,217.8 1353.0,222.7 1341.0,214.0 C 1329.0,205.3 1336.0,174.5 1340.0,162.0 C 1344.0,149.5 1359.7,146.8 1365.0,139.0 C 1370.3,131.2 1381.2,130.5 1372.0,115.0 C 1362.8,99.5 1330.2,46.2 1310.0,46.0 C 1289.8,45.8 1260.2,99.0 1251.0,114.0 C 1241.8,129.0 1249.8,127.7 1255.0,136.0 C 1260.2,144.3 1277.7,151.0 1282.0,164.0 C 1286.3,177.0 1293.3,205.8 1281.0,214.0 C 1268.7,222.2 1223.3,217.0 1208.0,213.0 C 1192.7,209.0 1194.8,194.3 1189.0,190.0 C 1183.2,185.7 1179.2,185.8 1173.0,187.0 C 1166.8,188.2 1162.3,188.2 1152.0,197.0 C 1141.7,205.8 1112.2,226.2 1111.0,240.0 C 1109.8,253.8 1134.8,270.8 1145.0,280.0 C 1155.2,289.2 1163.7,293.8 1172.0,295.0 C 1180.3,296.2 1188.7,292.3 1195.0,287.0 C 1201.3,281.7 1195.3,266.8 1210.0,263.0 C 1224.7,259.2 1272.2,253.8 1283.0,264.0 C 1293.8,274.2 1279.7,306.0 1275.0,324.0 C 1270.3,342.0 1264.2,357.0 1255.0,372.0 C 1245.8,387.0 1235.5,401.7 1220.0,414.0 C 1204.5,426.3 1178.8,439.0 1162.0,446.0 C 1145.2,453.0 1134.0,454.3 1119.0,456.0 C 1104.0,457.7 1088.3,457.8 1072.0,456.0 C 1055.7,454.2 1037.3,450.2 1021.0,445.0 C 1004.7,439.8 987.5,432.3 974.0,425.0 C 960.5,417.7 951.2,411.7 940.0,401.0 C 928.8,390.3 909.7,373.5 907.0,361.0 C 904.3,348.5 922.3,335.7 924.0,326.0 C 925.7,316.3 921.7,309.5 917.0,303.0 C 912.3,296.5 902.7,290.2 896.0,287.0 C 889.3,283.8 883.7,283.3 877.0,284.0 C 870.3,284.7 862.5,285.3 856.0,291.0 C 849.5,296.7 840.5,309.5 838.0,318.0 C 835.5,326.5 834.7,332.0 841.0,342.0 C 847.3,352.0 869.7,365.3 876.0,378.0 C 882.3,390.7 880.0,407.0 879.0,418.0 C 878.0,429.0 874.5,435.8 870.0,444.0 C 865.5,452.2 860.3,459.8 852.0,467.0 C 843.7,474.2 831.2,482.2 820.0,487.0 C 808.8,491.8 796.2,494.7 785.0,496.0 C 773.8,497.3 764.0,497.2 753.0,495.0 C 742.0,492.8 729.7,489.7 719.0,483.0 C 708.3,476.3 696.0,465.2 689.0,455.0 C 682.0,444.8 678.5,436.3 677.0,422.0 C 675.5,407.7 682.0,381.8 680.0,369.0 C 678.0,356.2 674.7,352.2 665.0,345.0 C 655.3,337.8 639.7,329.0 622.0,326.0 C 604.3,323.0 522.5,240.0 559.0,327.0 Z M 811.0,747.0 C 818.0,744.2 831.8,739.8 853.0,735.0 C 874.2,730.2 896.8,724.7 938.0,718.0 C 979.2,711.3 1053.2,700.3 1100.0,695.0 C 1146.8,689.7 1171.7,687.7 1219.0,686.0 C 1266.3,684.3 1339.0,684.2 1384.0,685.0 C 1429.0,685.8 1449.2,687.3 1489.0,691.0 C 1528.8,694.7 1576.2,699.7 1623.0,707.0 C 1669.8,714.3 1738.8,728.7 1770.0,735.0 C 1801.2,741.3 1802.8,742.2 1810.0,745.0 C 1817.2,747.8 1813.8,748.2 1813.0,752.0 C 1812.2,755.8 1807.3,765.0 1805.0,768.0 C 1802.7,771.0 1805.8,771.5 1799.0,770.0 C 1792.2,768.5 1778.3,762.7 1764.0,759.0 C 1749.7,755.3 1745.3,753.7 1713.0,748.0 C 1680.7,742.3 1613.0,730.7 1570.0,725.0 C 1527.0,719.3 1489.7,716.5 1455.0,714.0 C 1420.3,711.5 1401.0,710.5 1362.0,710.0 C 1323.0,709.5 1268.2,709.0 1221.0,711.0 C 1173.8,713.0 1125.3,716.8 1079.0,722.0 C 1032.7,727.2 980.2,735.7 943.0,742.0 C 905.8,748.3 875.7,755.5 856.0,760.0 C 836.3,764.5 831.2,767.7 825.0,769.0 C 818.8,770.3 821.3,770.8 819.0,768.0 C 816.7,765.2 812.3,755.5 811.0,752.0 C 809.7,748.5 804.0,749.8 811.0,747.0 Z M 967.0,544.0 C 968.8,543.8 969.5,543.8 971.0,544.0 C 972.5,544.2 974.2,544.5 976.0,545.0 C 977.8,545.5 980.0,546.2 982.0,547.0 C 984.0,547.8 986.0,548.8 988.0,550.0 C 990.0,551.2 991.8,552.2 994.0,554.0 C 996.2,555.8 999.2,558.8 1001.0,561.0 C 1002.8,563.2 1004.0,565.3 1005.0,567.0 C 1006.0,568.7 1006.3,569.2 1007.0,571.0 C 1007.7,572.8 1008.7,575.2 1009.0,578.0 C 1009.3,580.8 1009.3,585.2 1009.0,588.0 C 1008.7,590.8 1007.8,592.8 1007.0,595.0 C 1006.2,597.2 1004.8,599.5 1004.0,601.0 C 1003.2,602.5 1004.3,601.5 1002.0,604.0 C 999.7,606.5 992.5,613.7 990.0,616.0 C 987.5,618.3 988.5,617.2 987.0,618.0 C 985.5,618.8 983.2,620.2 981.0,621.0 C 978.8,621.8 977.2,622.7 974.0,623.0 C 970.8,623.3 965.0,623.3 962.0,623.0 C 959.0,622.7 958.0,621.8 956.0,621.0 C 954.0,620.2 952.2,619.3 950.0,618.0 C 947.8,616.7 945.0,614.7 943.0,613.0 C 941.0,611.3 939.7,610.0 938.0,608.0 C 936.3,606.0 934.2,602.8 933.0,601.0 C 931.8,599.2 931.7,598.2 931.0,597.0 C 930.3,595.8 929.5,595.7 929.0,594.0 C 928.5,592.3 928.2,589.2 928.0,587.0 C 927.8,584.8 927.8,582.8 928.0,581.0 C 928.2,579.2 928.3,578.2 929.0,576.0 C 929.7,573.8 931.3,569.7 932.0,568.0 C 932.7,566.3 932.2,567.3 933.0,566.0 C 933.8,564.7 935.2,562.2 937.0,560.0 C 938.8,557.8 941.8,554.8 944.0,553.0 C 946.2,551.2 948.3,550.0 950.0,549.0 C 951.7,548.0 952.3,547.7 954.0,547.0 C 955.7,546.3 957.8,545.5 960.0,545.0 C 962.2,544.5 965.2,544.2 967.0,544.0 Z M 1652.0,543.0 C 1654.5,542.7 1656.2,542.8 1658.0,543.0 C 1659.8,543.2 1661.3,543.5 1663.0,544.0 C 1664.7,544.5 1666.2,545.2 1668.0,546.0 C 1669.8,546.8 1672.3,548.0 1674.0,549.0 C 1675.7,550.0 1676.2,550.3 1678.0,552.0 C 1679.8,553.7 1683.2,556.8 1685.0,559.0 C 1686.8,561.2 1687.5,562.3 1689.0,565.0 C 1690.5,567.7 1693.0,572.7 1694.0,575.0 C 1695.0,577.3 1694.8,576.7 1695.0,579.0 C 1695.2,581.3 1695.2,586.7 1695.0,589.0 C 1694.8,591.3 1695.0,590.7 1694.0,593.0 C 1693.0,595.3 1690.2,600.8 1689.0,603.0 C 1687.8,605.2 1688.8,604.0 1687.0,606.0 C 1685.2,608.0 1680.5,612.8 1678.0,615.0 C 1675.5,617.2 1673.7,618.0 1672.0,619.0 C 1670.3,620.0 1670.3,620.2 1668.0,621.0 C 1665.7,621.8 1661.0,623.5 1658.0,624.0 C 1655.0,624.5 1652.5,624.3 1650.0,624.0 C 1647.5,623.7 1644.8,622.7 1643.0,622.0 C 1641.2,621.3 1640.2,620.5 1639.0,620.0 C 1637.8,619.5 1637.2,619.7 1636.0,619.0 C 1634.8,618.3 1633.2,617.0 1632.0,616.0 C 1630.8,615.0 1629.7,613.5 1629.0,613.0 C 1628.3,612.5 1628.5,613.3 1628.0,613.0 C 1627.5,612.7 1627.3,612.7 1626.0,611.0 C 1624.7,609.3 1621.5,605.3 1620.0,603.0 C 1618.5,600.7 1617.7,598.5 1617.0,597.0 C 1616.3,595.5 1616.5,596.0 1616.0,594.0 C 1615.5,592.0 1614.3,587.2 1614.0,585.0 C 1613.7,582.8 1613.8,582.5 1614.0,581.0 C 1614.2,579.5 1614.5,577.8 1615.0,576.0 C 1615.5,574.2 1616.2,572.0 1617.0,570.0 C 1617.8,568.0 1618.8,566.0 1620.0,564.0 C 1621.2,562.0 1622.5,559.8 1624.0,558.0 C 1625.5,556.2 1627.0,554.7 1629.0,553.0 C 1631.0,551.3 1633.7,549.3 1636.0,548.0 C 1638.3,546.7 1640.3,545.8 1643.0,545.0 C 1645.7,544.2 1649.5,543.3 1652.0,543.0 Z M 1309.0,504.0 C 1314.5,499.7 1312.2,503.7 1314.0,505.0 C 1315.8,506.3 1317.2,509.3 1320.0,512.0 C 1322.8,514.7 1326.7,517.0 1331.0,521.0 C 1335.3,525.0 1342.8,532.7 1346.0,536.0 C 1349.2,539.3 1348.7,539.2 1350.0,541.0 C 1351.3,542.8 1352.5,544.3 1354.0,547.0 C 1355.5,549.7 1358.2,553.8 1359.0,557.0 C 1359.8,560.2 1359.3,563.8 1359.0,566.0 C 1358.7,568.2 1358.2,568.0 1357.0,570.0 C 1355.8,572.0 1353.3,576.0 1352.0,578.0 C 1350.7,580.0 1351.3,579.3 1349.0,582.0 C 1346.7,584.7 1341.2,591.0 1338.0,594.0 C 1334.8,597.0 1331.7,598.7 1330.0,600.0 C 1328.3,601.3 1328.5,601.2 1328.0,602.0 C 1327.5,602.8 1327.7,604.5 1327.0,605.0 C 1326.3,605.5 1324.7,604.5 1324.0,605.0 C 1323.3,605.5 1323.7,607.5 1323.0,608.0 C 1322.3,608.5 1320.5,607.0 1320.0,608.0 C 1319.5,609.0 1320.7,613.0 1320.0,614.0 C 1319.3,615.0 1316.8,614.2 1316.0,614.0 C 1315.2,613.8 1316.0,613.2 1315.0,613.0 C 1314.0,612.8 1313.7,615.2 1310.0,613.0 C 1306.3,610.8 1298.8,605.2 1293.0,600.0 C 1287.2,594.8 1279.0,586.3 1275.0,582.0 C 1271.0,577.7 1271.0,577.2 1269.0,574.0 C 1267.0,570.8 1264.0,565.8 1263.0,563.0 C 1262.0,560.2 1262.0,559.8 1263.0,557.0 C 1264.0,554.2 1267.2,549.0 1269.0,546.0 C 1270.8,543.0 1272.0,541.5 1274.0,539.0 C 1276.0,536.5 1275.2,536.8 1281.0,531.0 C 1286.8,525.2 1303.5,508.3 1309.0,504.0 Z" fill="url(#crownGold)" fill-rule="evenodd"/>
</svg>